<svg width="25" height="24" viewBox="0 0 25 24" fill="none" xmlns="http://www.w3.org/2000/svg">
<mask id="path-1-outside-1_1788_13000" maskUnits="userSpaceOnUse" x="2.59692" y="1.95703" width="20" height="21" fill="black">
<rect fill="white" x="2.59692" y="1.95703" width="20" height="21"/>
<path fill-rule="evenodd" clip-rule="evenodd" d="M9.18082 4.63761C9.18082 4.26173 8.87612 3.95703 8.50024 3.95703C8.12437 3.95703 7.81967 4.26173 7.81967 4.63761V5.34695H7.222C5.77221 5.34695 4.59692 6.52224 4.59692 7.97203V9.79342H20.4031V7.97203C20.4031 6.52224 19.2278 5.34695 17.778 5.34695H17.1808V4.63761C17.1808 4.26173 16.8761 3.95703 16.5002 3.95703C16.1244 3.95703 15.8197 4.26173 15.8197 4.63761V5.34695H9.18082V4.63761ZM20.4031 11.1546H4.59692V17.4169C4.59692 18.8667 5.77221 20.0419 7.222 20.0419H17.778C19.2278 20.0419 20.4031 18.8667 20.4031 17.4169V11.1546Z"/>
</mask>
<g filter="url(#filter0_i_1788_13000)">
<path fill-rule="evenodd" clip-rule="evenodd" d="M9.18082 4.63761C9.18082 4.26173 8.87612 3.95703 8.50024 3.95703C8.12437 3.95703 7.81967 4.26173 7.81967 4.63761V5.34695H7.222C5.77221 5.34695 4.59692 6.52224 4.59692 7.97203V9.79342H20.4031V7.97203C20.4031 6.52224 19.2278 5.34695 17.778 5.34695H17.1808V4.63761C17.1808 4.26173 16.8761 3.95703 16.5002 3.95703C16.1244 3.95703 15.8197 4.26173 15.8197 4.63761V5.34695H9.18082V4.63761ZM20.4031 11.1546H4.59692V17.4169C4.59692 18.8667 5.77221 20.0419 7.222 20.0419H17.778C19.2278 20.0419 20.4031 18.8667 20.4031 17.4169V11.1546Z" fill="url(#paint0_radial_1788_13000)"/>
</g>
<path d="M7.81967 5.34695V7.34695H9.81967V5.34695H7.81967ZM4.59692 9.79342H2.59692V11.7934H4.59692V9.79342ZM20.4031 9.79342V11.7934H22.4031V9.79342H20.4031ZM17.1808 5.34695H15.1808V7.34695H17.1808V5.34695ZM15.8197 5.34695V7.34695H17.8197V5.34695H15.8197ZM9.18082 5.34695H7.18082V7.34695H9.18082V5.34695ZM20.4031 11.1546H22.4031V9.15457H20.4031V11.1546ZM4.59692 11.1546V9.15457H2.59692V11.1546H4.59692ZM8.50024 5.95703C7.77154 5.95703 7.18082 5.3663 7.18082 4.63761H11.1808C11.1808 3.15717 9.98069 1.95703 8.50024 1.95703V5.95703ZM9.81967 4.63761C9.81967 5.3663 9.22894 5.95703 8.50024 5.95703V1.95703C7.0198 1.95703 5.81967 3.15717 5.81967 4.63761H9.81967ZM9.81967 5.34695V4.63761H5.81967V5.34695H9.81967ZM7.222 7.34695H7.81967V3.34695H7.222V7.34695ZM6.59692 7.97203C6.59692 7.62681 6.87678 7.34695 7.222 7.34695V3.34695C4.66764 3.34695 2.59692 5.41768 2.59692 7.97203H6.59692ZM6.59692 9.79342V7.97203H2.59692V9.79342H6.59692ZM4.59692 11.7934H20.4031V7.79342H4.59692V11.7934ZM18.4031 7.97203V9.79342H22.4031V7.97203H18.4031ZM17.778 7.34695C18.1232 7.34695 18.4031 7.62681 18.4031 7.97203H22.4031C22.4031 5.41767 20.3324 3.34695 17.778 3.34695V7.34695ZM17.1808 7.34695H17.778V3.34695H17.1808V7.34695ZM15.1808 4.63761V5.34695H19.1808V4.63761H15.1808ZM16.5002 5.95703C15.7715 5.95703 15.1808 5.3663 15.1808 4.63761H19.1808C19.1808 3.15717 17.9807 1.95703 16.5002 1.95703V5.95703ZM17.8197 4.63761C17.8197 5.3663 17.2289 5.95703 16.5002 5.95703V1.95703C15.0198 1.95703 13.8197 3.15717 13.8197 4.63761H17.8197ZM17.8197 5.34695V4.63761H13.8197V5.34695H17.8197ZM9.18082 7.34695H15.8197V3.34695H9.18082V7.34695ZM7.18082 4.63761V5.34695H11.1808V4.63761H7.18082ZM20.4031 9.15457H4.59692V13.1546H20.4031V9.15457ZM6.59692 17.4169V11.1546H2.59692V17.4169H6.59692ZM7.222 18.0419C6.87678 18.0419 6.59692 17.7621 6.59692 17.4169H2.59692C2.59692 19.9712 4.66764 22.0419 7.222 22.0419V18.0419ZM17.778 18.0419H7.222V22.0419H17.778V18.0419ZM18.4031 17.4169C18.4031 17.7621 18.1232 18.0419 17.778 18.0419V22.0419C20.3324 22.0419 22.4031 19.9712 22.4031 17.4169H18.4031ZM18.4031 11.1546V17.4169H22.4031V11.1546H18.4031Z" fill="#F3F5F9" mask="url(#path-1-outside-1_1788_13000)"/>
<defs>
<filter id="filter0_i_1788_13000" x="2.59692" y="1.95703" width="19.8062" height="21.0859" filterUnits="userSpaceOnUse" color-interpolation-filters="sRGB">
<feFlood flood-opacity="0" result="BackgroundImageFix"/>
<feBlend mode="normal" in="SourceGraphic" in2="BackgroundImageFix" result="shape"/>
<feColorMatrix in="SourceAlpha" type="matrix" values="0 0 0 0 0 0 0 0 0 0 0 0 0 0 0 0 0 0 127 0" result="hardAlpha"/>
<feOffset dy="1"/>
<feGaussianBlur stdDeviation="1"/>
<feComposite in2="hardAlpha" operator="arithmetic" k2="-1" k3="1"/>
<feColorMatrix type="matrix" values="0 0 0 0 0 0 0 0 0 0.16 0 0 0 0 1 0 0 0 0.4 0"/>
<feBlend mode="normal" in2="shape" result="effect1_innerShadow_1788_13000"/>
</filter>
<radialGradient id="paint0_radial_1788_13000" cx="0" cy="0" r="1" gradientUnits="userSpaceOnUse" gradientTransform="translate(9.20705 2.50047) rotate(70.6883) scale(21.9061 58.7586)">
<stop stop-color="#C4D1FF"/>
<stop offset="0.359375" stop-color="#97AEFF"/>
<stop offset="1" stop-color="#865BFF"/>
</radialGradient>
</defs>
</svg>
