<svg width="16" height="16" viewBox="0 0 16 16" fill="none" xmlns="http://www.w3.org/2000/svg">
<path d="M8 14.2461C11.2695 14.2461 13.9766 11.5332 13.9766 8.26953C13.9766 5 11.2637 2.29297 7.99414 2.29297C4.73047 2.29297 2.02344 5 2.02344 8.26953C2.02344 11.5332 4.73633 14.2461 8 14.2461ZM8.00586 8.4043C7.77148 8.4043 7.60742 8.23438 7.60742 7.99414V5.35156C7.60742 5.10547 7.77148 4.93555 8.00586 4.93555C8.24023 4.93555 8.41016 5.10547 8.41016 5.35156V7.99414C8.41016 8.23438 8.24023 8.4043 8.00586 8.4043ZM8.00586 11.4336C6.27734 11.4336 4.83594 9.99219 4.83594 8.26953C4.83594 7.39648 5.22266 6.5293 5.87891 5.94922C6.28906 5.55664 6.85742 6.14844 6.42969 6.54688C5.94922 6.99219 5.67969 7.60156 5.67969 8.26953C5.67969 9.56445 6.71094 10.6016 8.00586 10.6016C9.30078 10.6016 10.3379 9.56445 10.3379 8.26953C10.332 7.60156 10.0566 6.99219 9.58203 6.55273C9.1543 6.1543 9.72266 5.5625 10.1387 5.94922C10.7891 6.54102 11.1758 7.40234 11.1758 8.26953C11.1758 9.99219 9.73438 11.4336 8.00586 11.4336Z" fill="#80819C"/>
</svg>
