<svg width="16" height="16" viewBox="0 0 16 16" fill="none" xmlns="http://www.w3.org/2000/svg">
<path d="M2.2168 8C2.2168 8.48535 2.62012 8.88184 3.09863 8.88184H7.11816V12.9014C7.11816 13.3867 7.51465 13.7832 8 13.7832C8.48535 13.7832 8.88184 13.3867 8.88184 12.9014V8.88184H12.9014C13.3867 8.88184 13.7832 8.48535 13.7832 8C13.7832 7.51465 13.3867 7.11816 12.9014 7.11816H8.88184V3.09863C8.88184 2.62012 8.48535 2.2168 8 2.2168C7.51465 2.2168 7.11816 2.62012 7.11816 3.09863V7.11816H3.09863C2.62012 7.11816 2.2168 7.51465 2.2168 8Z" fill="white"/>
</svg>
