<svg width="18" height="16" viewBox="0 0 18 16" fill="none" xmlns="http://www.w3.org/2000/svg">
<path d="M2.06836 7.8418H7.60547C8.53711 7.8418 9.01172 7.36719 9.01172 6.41797V3.78711C9.01172 2.83789 8.53711 2.36914 7.60547 2.36914H2.06836C1.13672 2.36914 0.662109 2.83789 0.662109 3.78711V6.41797C0.662109 7.36719 1.13672 7.8418 2.06836 7.8418ZM12.0469 12.7637H15.9316C16.8633 12.7637 17.3379 12.2891 17.3379 11.3398V4.77148C17.3379 3.82227 16.8633 3.34766 15.9316 3.34766H12.0469C11.1152 3.34766 10.6406 3.82227 10.6406 4.77148V11.3398C10.6406 12.2891 11.1152 12.7637 12.0469 12.7637ZM3.46289 13.6309H8.19727C9.13477 13.6309 9.60938 13.1621 9.60938 12.2129V10.3555C9.60938 9.40625 9.13477 8.92578 8.19727 8.92578H3.46289C2.53125 8.92578 2.05664 9.40625 2.05664 10.3555V12.2129C2.05664 13.1621 2.53125 13.6309 3.46289 13.6309Z" fill="#787878"/>
</svg>
