<svg width="16" height="16" viewBox="0 0 16 16" fill="none" xmlns="http://www.w3.org/2000/svg">
<g clip-path="url(#clip0_2684_8884)">
<path d="M3.28906 15.4688H12.7109C14.5 15.4688 15.4688 14.5 15.4688 12.7266V3.27344C15.4688 1.5 14.5 0.53125 12.7109 0.53125H3.28906C1.50781 0.53125 0.53125 1.5 0.53125 3.27344V12.7266C0.53125 14.5 1.50781 15.4688 3.28906 15.4688ZM9.6875 11.9531C9.41406 12.2266 8.83594 12.2188 8.53906 11.9375L5.375 8.96875C4.82812 8.45312 4.82031 7.55469 5.375 7.03906L8.53906 4.07031C8.86719 3.75781 9.36719 3.76562 9.67188 4.04688C10.0078 4.35938 10.0156 4.90625 9.6875 5.21094L6.70312 8L9.6875 10.7891C10.0078 11.0938 10.0234 11.6172 9.6875 11.9531Z" fill="#949BF1"/>
</g>
<defs>
<clipPath id="clip0_2684_8884">
<rect width="16" height="16" fill="white"/>
</clipPath>
</defs>
</svg>
