<svg width="16" height="16" viewBox="0 0 16 16" fill="none" xmlns="http://www.w3.org/2000/svg">
<path d="M1.39648 9.57031C1.39648 10.877 2.10547 11.627 3.46484 11.627H3.62891V6.57031C3.62891 4.71289 4.7832 3.56445 6.65234 3.56445H11.5566V3.51172C11.5566 2.19336 10.8242 1.46094 9.48828 1.46094H3.46484C2.12891 1.46094 1.39648 2.1875 1.39648 3.51758V9.57031ZM6.65234 14.5391H12.5352C13.8711 14.5391 14.6035 13.8125 14.6035 12.4824V6.57031C14.6035 5.24023 13.8711 4.51367 12.5352 4.51367H6.65234C5.31055 4.51367 4.57812 5.24023 4.57812 6.57031V12.4824C4.57812 13.8125 5.31055 14.5391 6.65234 14.5391Z" fill="#80819C"/>
</svg>
