<svg width="16" height="16" viewBox="0 0 16 16" fill="none" xmlns="http://www.w3.org/2000/svg">
<path d="M3.54102 14.0234C3.78711 14.0234 3.98633 13.8301 3.98633 13.584V10.3262C4.13281 10.2617 4.68359 10.0508 5.54492 10.0508C7.71289 10.0508 9.07227 11.1113 11.1348 11.1113C12.0488 11.1113 12.3887 11.0117 12.834 10.8125C13.2383 10.6309 13.502 10.3262 13.502 9.78711V3.83984C13.502 3.52344 13.2324 3.3418 12.8926 3.3418C12.6055 3.3418 12.0664 3.58789 11.0586 3.58789C8.99609 3.58789 7.64258 2.52734 5.46875 2.52734C4.55469 2.52734 4.20898 2.62695 3.76367 2.82617C3.35938 3.00781 3.0957 3.3125 3.0957 3.8457V13.584C3.0957 13.8242 3.30078 14.0234 3.54102 14.0234Z" fill="#80819C"/>
</svg>
