<svg width="16" height="16" viewBox="0 0 16 16" fill="none" xmlns="http://www.w3.org/2000/svg">
<path d="M3.46802 12.5267C3.72584 12.7787 4.14771 12.7787 4.39381 12.5326L7.99732 8.92908L11.6008 12.5326C11.8528 12.7787 12.2747 12.7846 12.5266 12.5267C12.7786 12.2748 12.7786 11.8529 12.5325 11.6068L8.92896 7.99744L12.5325 4.39393C12.7786 4.14783 12.7844 3.7201 12.5266 3.47401C12.2688 3.22205 11.8528 3.22205 11.6008 3.46815L7.99732 7.07166L4.39381 3.46815C4.14771 3.22205 3.71998 3.21619 3.46802 3.46815C3.21607 3.72596 3.22193 4.15369 3.46802 4.39393L7.07154 7.99744L3.46802 11.6068C3.22193 11.8471 3.21607 12.2806 3.46802 12.5267Z" fill="#AEAEAE"/>
</svg>
