<svg width="16" height="16" viewBox="0 0 16 16" fill="none" xmlns="http://www.w3.org/2000/svg">
<path d="M5.23145 14.6152H10.7744C11.624 14.6152 12.1045 14.1699 12.1396 13.332L12.5088 4.92383H13.2822C13.6045 4.92383 13.8564 4.67773 13.8564 4.34961C13.8564 4.02734 13.6045 3.78125 13.2822 3.78125H10.7803V2.91992C10.7803 1.95312 10.165 1.38477 9.11035 1.38477H6.88379C5.8291 1.38477 5.21387 1.95312 5.21387 2.91992V3.78125H2.72363C2.40137 3.78125 2.14355 4.02734 2.14355 4.34961C2.14355 4.67773 2.40137 4.92383 2.72363 4.92383H3.49707L3.86621 13.332C3.90137 14.1699 4.38184 14.6152 5.23145 14.6152ZM6.53223 2.9668C6.53223 2.7207 6.69629 2.56836 6.97168 2.56836H9.02246C9.29785 2.56836 9.46777 2.7207 9.46777 2.9668V3.78125H6.53223V2.9668ZM6.11035 12.7461C5.8584 12.7461 5.68262 12.582 5.67676 12.3301L5.50098 6.20117C5.49512 5.94922 5.66504 5.78516 5.92871 5.78516C6.18066 5.78516 6.35645 5.94922 6.3623 6.19531L6.53809 12.3242C6.54395 12.5703 6.37402 12.7461 6.11035 12.7461ZM8.00293 12.7461C7.74512 12.7461 7.56348 12.5762 7.56348 12.3301V6.19531C7.56348 5.94922 7.74512 5.78516 8.00293 5.78516C8.26074 5.78516 8.43652 5.94922 8.43652 6.19531V12.3301C8.43652 12.5762 8.26074 12.7461 8.00293 12.7461ZM9.89551 12.7461C9.62598 12.7461 9.45605 12.5762 9.46191 12.3242L9.6377 6.19531C9.64355 5.94922 9.81934 5.78516 10.0771 5.78516C10.335 5.78516 10.5049 5.95508 10.499 6.20117L10.3232 12.3301C10.3174 12.582 10.1416 12.7461 9.89551 12.7461Z" fill="#8985FB"/>
</svg>
