<svg width="16" height="16" viewBox="0 0 16 16" fill="none" xmlns="http://www.w3.org/2000/svg">
<path d="M7.96777 14.5977C8.19043 14.5977 8.34863 14.4395 8.34863 14.2051V13.2676C10.4814 13.1387 12.0107 11.9961 12.0107 10.1387C12.0107 8.56836 11.0205 7.71289 8.90527 7.23242L8.34863 7.10938V4.30859C9.12207 4.41406 9.64941 4.81836 9.9248 5.48047C10.1475 5.89648 10.4521 6.08984 10.8799 6.08984C11.4248 6.08984 11.7588 5.78516 11.7588 5.31055C11.7588 5.16992 11.7295 5.0293 11.6885 4.88281C11.3428 3.73438 10.124 2.84961 8.34863 2.72656V1.79492C8.34863 1.56055 8.19043 1.40234 7.96777 1.40234C7.73926 1.40234 7.58691 1.56055 7.58691 1.79492V2.7207C5.5127 2.83789 4.04785 4.01562 4.04785 5.76172C4.04785 7.32031 5.06738 8.2168 7.07129 8.67383L7.58691 8.78516V11.6973C6.64355 11.6094 6.06934 11.1758 5.8291 10.4844C5.63574 10.0801 5.34863 9.8457 4.90332 9.8457C4.31738 9.8457 3.98926 10.1973 3.98926 10.7129C3.98926 10.8418 4.01855 10.9883 4.07715 11.1465C4.43457 12.2715 5.68262 13.1797 7.58691 13.2734V14.2051C7.58691 14.4395 7.73926 14.5977 7.96777 14.5977ZM5.99902 5.5918C5.99902 4.92383 6.56738 4.40234 7.58691 4.30273V6.93359C6.51465 6.66406 5.99902 6.26562 5.99902 5.5918ZM10.0654 10.3438C10.0654 11.1348 9.41504 11.6035 8.34863 11.6973V8.96094C9.56738 9.25977 10.0654 9.60547 10.0654 10.3438Z" fill="#787878"/>
</svg>
