<svg width="16" height="16" viewBox="0 0 16 16" fill="none" xmlns="http://www.w3.org/2000/svg">
<path d="M3.94824 13.5254H12.0518C13.3525 13.5254 14.0381 12.8457 14.0381 11.5625V4.44336C14.0381 3.16016 13.3525 2.47461 12.0518 2.47461H3.94824C2.65332 2.47461 1.96191 3.16016 1.96191 4.44336V11.5625C1.96191 12.8457 2.65332 13.5254 3.94824 13.5254ZM3.98926 12.2246C3.52051 12.2246 3.26855 11.9902 3.26855 11.4922V6.17188C3.26855 5.67969 3.52051 5.44531 3.98926 5.44531H12.0049C12.4736 5.44531 12.7314 5.67969 12.7314 6.17188V11.4922C12.7314 11.9902 12.4736 12.2246 12.0049 12.2246H3.98926ZM6.88379 7.41992H7.22949C7.44043 7.41992 7.51074 7.35547 7.51074 7.14453V6.79883C7.51074 6.58789 7.44043 6.52344 7.22949 6.52344H6.88379C6.67285 6.52344 6.60254 6.58789 6.60254 6.79883V7.14453C6.60254 7.35547 6.67285 7.41992 6.88379 7.41992ZM8.77637 7.41992H9.12207C9.33301 7.41992 9.40332 7.35547 9.40332 7.14453V6.79883C9.40332 6.58789 9.33301 6.52344 9.12207 6.52344H8.77637C8.56543 6.52344 8.49512 6.58789 8.49512 6.79883V7.14453C8.49512 7.35547 8.56543 7.41992 8.77637 7.41992ZM10.6689 7.41992H11.0146C11.2256 7.41992 11.3018 7.35547 11.3018 7.14453V6.79883C11.3018 6.58789 11.2256 6.52344 11.0146 6.52344H10.6689C10.458 6.52344 10.3877 6.58789 10.3877 6.79883V7.14453C10.3877 7.35547 10.458 7.41992 10.6689 7.41992ZM4.99121 9.2832H5.33691C5.54785 9.2832 5.61816 9.21875 5.61816 9.00781V8.66211C5.61816 8.45117 5.54785 8.38672 5.33691 8.38672H4.99121C4.78027 8.38672 4.7041 8.45117 4.7041 8.66211V9.00781C4.7041 9.21875 4.78027 9.2832 4.99121 9.2832ZM6.88379 9.2832H7.22949C7.44043 9.2832 7.51074 9.21875 7.51074 9.00781V8.66211C7.51074 8.45117 7.44043 8.38672 7.22949 8.38672H6.88379C6.67285 8.38672 6.60254 8.45117 6.60254 8.66211V9.00781C6.60254 9.21875 6.67285 9.2832 6.88379 9.2832ZM8.77637 9.2832H9.12207C9.33301 9.2832 9.40332 9.21875 9.40332 9.00781V8.66211C9.40332 8.45117 9.33301 8.38672 9.12207 8.38672H8.77637C8.56543 8.38672 8.49512 8.45117 8.49512 8.66211V9.00781C8.49512 9.21875 8.56543 9.2832 8.77637 9.2832ZM10.6689 9.2832H11.0146C11.2256 9.2832 11.3018 9.21875 11.3018 9.00781V8.66211C11.3018 8.45117 11.2256 8.38672 11.0146 8.38672H10.6689C10.458 8.38672 10.3877 8.45117 10.3877 8.66211V9.00781C10.3877 9.21875 10.458 9.2832 10.6689 9.2832ZM4.99121 11.1465H5.33691C5.54785 11.1465 5.61816 11.082 5.61816 10.8711V10.5254C5.61816 10.3145 5.54785 10.25 5.33691 10.25H4.99121C4.78027 10.25 4.7041 10.3145 4.7041 10.5254V10.8711C4.7041 11.082 4.78027 11.1465 4.99121 11.1465ZM6.88379 11.1465H7.22949C7.44043 11.1465 7.51074 11.082 7.51074 10.8711V10.5254C7.51074 10.3145 7.44043 10.25 7.22949 10.25H6.88379C6.67285 10.25 6.60254 10.3145 6.60254 10.5254V10.8711C6.60254 11.082 6.67285 11.1465 6.88379 11.1465ZM8.77637 11.1465H9.12207C9.33301 11.1465 9.40332 11.082 9.40332 10.8711V10.5254C9.40332 10.3145 9.33301 10.25 9.12207 10.25H8.77637C8.56543 10.25 8.49512 10.3145 8.49512 10.5254V10.8711C8.49512 11.082 8.56543 11.1465 8.77637 11.1465Z" fill="#787878"/>
</svg>
