<svg width="16" height="16" viewBox="0 0 16 16" fill="none" xmlns="http://www.w3.org/2000/svg">
<path d="M13.3066 3.66346L13.7051 3.25917C13.9512 3.00721 13.9629 2.65565 13.7227 2.41542L13.5527 2.25136C13.3418 2.04042 12.9785 2.07557 12.7441 2.30995L12.3457 2.70253L13.3066 3.66346ZM6.36328 9.88612L7.59961 9.37636L12.8496 4.1205L11.8828 3.16542L6.63867 8.42128L6.10547 9.61659C6.04102 9.77479 6.2168 9.94471 6.36328 9.88612ZM4.08984 13.8881H10.8809C12.0527 13.8881 12.7383 13.2025 12.7383 11.9193V5.7787L11.4316 7.08534V11.7787C11.4316 12.3178 11.1504 12.5814 10.7695 12.5814H4.20117C3.68555 12.5814 3.41016 12.3178 3.41016 11.7787V5.35682C3.41016 4.81776 3.68555 4.55409 4.20117 4.55409H8.95312L10.2598 3.25331H4.08984C2.79492 3.25331 2.10352 3.933 2.10352 5.22206V11.9193C2.10352 13.2025 2.79492 13.8881 4.08984 13.8881Z" fill="#8985FB"/>
</svg>
