<svg width="16" height="16" viewBox="0 0 16 16" fill="none" xmlns="http://www.w3.org/2000/svg">
<path d="M5.53027 13.5107H10.4697C11.1377 13.5107 11.5479 13.124 11.5479 12.4268V12.3213C11.5479 10.8506 10.0186 9.33301 9.29199 8.60645C8.91113 8.23145 8.89355 7.78027 9.29199 7.38184C10.0186 6.65527 11.5479 5.14941 11.5479 3.67285V3.5791C11.5479 2.88184 11.1377 2.48926 10.4697 2.48926H5.53027C4.8623 2.48926 4.45215 2.88184 4.45215 3.5791V3.67285C4.45215 5.14941 5.98145 6.65527 6.70801 7.38184C7.10645 7.78027 7.08887 8.23145 6.70801 8.60645C5.98145 9.33301 4.45215 10.8506 4.45215 12.3213V12.4268C4.45215 13.124 4.8623 13.5107 5.53027 13.5107ZM8.50684 6.99512C8.14355 7.31152 7.85645 7.31152 7.49902 6.99512C7.10059 6.64941 5.96973 5.47168 5.53613 4.77441C5.38965 4.55176 5.44824 4.34082 5.69434 4.34082H10.3115C10.5518 4.34082 10.6104 4.55176 10.4639 4.77441C10.0303 5.47168 8.89941 6.64941 8.50684 6.99512Z" fill="#80819C"/>
</svg>
