<svg width="16" height="16" viewBox="0 0 16 16" fill="none" xmlns="http://www.w3.org/2000/svg">
<path d="M2.93164 13.666H13.0684C14.2988 13.666 14.9082 13.0625 14.9082 11.8555V4.69531C14.9082 3.48828 14.2988 2.87891 13.0684 2.87891H2.93164C1.70703 2.87891 1.0918 3.48828 1.0918 4.69531V11.8555C1.0918 13.0625 1.70703 13.666 2.93164 13.666ZM11.3926 10.748C10.5371 10.748 9.82227 10.3203 9.69336 9.70508C9.68164 9.63477 9.67578 9.59961 9.67578 9.52344C9.67578 9.3125 9.81055 9.16016 10.0391 9.16016C10.2207 9.16016 10.332 9.24805 10.4082 9.42969C10.5488 9.83984 10.9004 10.0684 11.4043 10.0684C12.0137 10.0684 12.418 9.75195 12.418 9.28906C12.418 8.81445 12.0195 8.50391 11.4336 8.50391H11.0645C10.877 8.50391 10.7363 8.36328 10.7363 8.16992C10.7363 7.9707 10.877 7.8418 11.0645 7.8418H11.3984C11.8906 7.8418 12.2598 7.52539 12.2598 7.09766C12.2598 6.68164 11.9316 6.42383 11.4219 6.42383C10.959 6.42383 10.6133 6.65234 10.4961 7.05664C10.4375 7.24414 10.3203 7.33203 10.1328 7.33203C9.91602 7.33203 9.76953 7.18555 9.76953 6.98633C9.76953 6.89844 9.77539 6.85156 9.78711 6.77539C9.93359 6.14844 10.5781 5.73828 11.4336 5.73828C12.3711 5.73828 13.0391 6.27148 13.0391 7.00977C13.0391 7.56641 12.6348 8.04688 12.1133 8.12891V8.14062C12.7461 8.21094 13.209 8.69727 13.209 9.31836C13.209 10.1797 12.4766 10.748 11.3926 10.748ZM6.16016 10.666C5.92578 10.666 5.77344 10.5312 5.77344 10.3145C5.77344 10.1914 5.82617 10.0918 5.91406 9.99805L7.60742 8.1875C7.91211 7.85938 8.22852 7.53711 8.22852 7.16211C8.22852 6.72852 7.89453 6.43555 7.40234 6.43555C6.89844 6.43555 6.61719 6.77539 6.48828 7.09766C6.39453 7.25 6.29492 7.36719 6.10156 7.36719C5.88477 7.36719 5.75 7.22656 5.75 7.02148C5.75 6.94531 5.76172 6.89258 5.78516 6.81055C5.95508 6.20117 6.62305 5.74414 7.36719 5.74414C8.3457 5.74414 8.99023 6.2832 8.99023 7.09766C8.99023 7.67773 8.65625 8.09961 8.1875 8.60352L6.93945 9.93945V9.96289H8.86719C9.07812 9.96289 9.22461 10.1035 9.22461 10.3086C9.22461 10.5137 9.07812 10.666 8.86719 10.666H6.16016ZM4.4375 10.7422C4.18555 10.7422 4.0332 10.5664 4.0332 10.2852V6.64648H3.98047L3.29492 7.09766C3.16602 7.18555 3.10742 7.19727 3.02539 7.19727C2.87891 7.19727 2.74414 7.05664 2.74414 6.89258C2.74414 6.77539 2.78516 6.6875 2.90234 6.61133L3.86328 5.95508C4.0918 5.80273 4.21484 5.75 4.41992 5.75C4.69531 5.75 4.85352 5.91406 4.85352 6.21289V10.2852C4.85352 10.5723 4.70117 10.7422 4.4375 10.7422Z" fill="#80819C"/>
</svg>
