<svg width="16" height="16" viewBox="0 0 16 16" fill="none" xmlns="http://www.w3.org/2000/svg">
<path d="M4.44336 13.6719H11.5508C12.7812 13.6719 13.3906 13.0625 13.3906 11.8555V4.70117C13.3906 3.49414 12.7812 2.88477 11.5508 2.88477H4.44336C3.21875 2.88477 2.60352 3.48828 2.60352 4.70117V11.8555C2.60352 13.0684 3.21875 13.6719 4.44336 13.6719ZM4.81836 8.77344C4.29102 8.77344 4.23242 8.20508 4.61914 8.02344L10.3262 5.31055C10.8008 5.08789 11.1992 5.49219 10.9824 5.96094L8.29883 11.6738C8.11719 12.0664 7.54883 12.0137 7.54883 11.4688L7.54297 8.97266C7.54297 8.85547 7.4668 8.77344 7.35547 8.77344H4.81836Z" fill="#80819C"/>
</svg>
