<svg width="33" height="20" viewBox="0 0 33 20" fill="none" xmlns="http://www.w3.org/2000/svg">
<rect x="0.5" width="32" height="20" rx="4" fill="currentColor"/>
<path d="M12.041 11.4531C12.8145 11.4531 13.4941 10.7676 13.4941 10C13.4941 9.16797 12.873 8.54688 12.041 8.54688C11.2441 8.54688 10.5879 9.19727 10.5879 10C10.5879 10.7676 11.2441 11.4531 12.041 11.4531ZM16.5 11.4531C17.2734 11.4531 17.9531 10.7676 17.9531 10C17.9531 9.16797 17.332 8.54688 16.5 8.54688C15.709 8.54688 15.0527 9.19727 15.0527 10C15.0527 10.7676 15.709 11.4531 16.5 11.4531ZM20.9648 11.4531C21.7383 11.4531 22.4121 10.7676 22.4121 10C22.4121 9.16797 21.791 8.54688 20.9648 8.54688C20.1621 8.54688 19.5059 9.19727 19.5059 10C19.5059 10.7676 20.1621 11.4531 20.9648 11.4531Z" fill="white"/>
</svg>
