<svg width="16" height="16" viewBox="0 0 16 16" fill="none" xmlns="http://www.w3.org/2000/svg">
<path d="M12.9863 2.88184H3.01953C1.72461 2.88184 1.0332 3.56152 1.0332 4.85059V5.36621H14.9668V4.85059C14.9668 3.56152 14.2812 2.88184 12.9863 2.88184ZM3.51172 11.2139C3.16602 11.2139 2.9375 10.9854 2.9375 10.6572V9.56738C2.9375 9.23926 3.16602 9.01074 3.51172 9.01074H4.94727C5.29297 9.01074 5.52148 9.23926 5.52148 9.56738V10.6572C5.52148 10.9854 5.29297 11.2139 4.94727 11.2139H3.51172ZM3.01953 13.1182H12.9863C14.2812 13.1182 14.9668 12.4326 14.9668 11.1494V6.7666H1.0332V11.1494C1.0332 12.4385 1.72461 13.1182 3.01953 13.1182Z" fill="#787878"/>
</svg>
