<svg width="16" height="16" viewBox="0 0 16 16" fill="none" xmlns="http://www.w3.org/2000/svg">
<path d="M2.91992 13.9414H13.0742C14.3633 13.9414 15.0371 13.2734 15.0371 11.9961V6.23633C15.0371 4.95898 14.3633 4.29688 13.0742 4.29688H11.1406V3.71094C11.1406 2.59766 10.5254 2.05859 9.39453 2.05859H6.59961C5.50391 2.05859 4.85938 2.59766 4.85938 3.71094V4.29688H2.91992C1.63672 4.29688 0.962891 4.95898 0.962891 6.23633V11.9961C0.962891 13.2734 1.63672 13.9414 2.91992 13.9414ZM6.03711 3.75781C6.03711 3.35938 6.26562 3.13672 6.67578 3.13672H9.32422C9.73438 3.13672 9.96289 3.35938 9.96289 3.75781V4.29688H6.03711V3.75781Z" fill="#787878"/>
</svg>
