<svg width="17" height="16" viewBox="0 0 17 16" fill="none" xmlns="http://www.w3.org/2000/svg">
<path d="M6.65406 3.1543C6.65406 3.60547 6.97046 3.91016 7.44507 3.91016H11.5173C11.9919 3.91016 12.2439 4.14453 12.2439 4.64258V10.3203L11.4939 9.4707L11.1658 9.14258C10.8494 8.83203 10.4041 8.82031 10.0935 9.13672C9.78296 9.45312 9.7771 9.89844 10.0994 10.2148L12.1384 12.2539C12.6834 12.793 13.3103 12.7871 13.8494 12.2539L15.8943 10.2148C16.2107 9.89844 16.2107 9.45312 15.9002 9.13672C15.5896 8.82031 15.1443 8.82617 14.8279 9.14258L14.4998 9.4707L13.7556 10.3145V4.45508C13.7556 3.125 13.0232 2.39844 11.6873 2.39844H7.44507C6.97046 2.39844 6.6482 2.70312 6.65406 3.1543ZM1.09937 6.86914C1.41578 7.17969 1.85523 7.17383 2.1775 6.85742L2.50562 6.53516L3.24976 5.69141V11.5449C3.24976 12.875 3.98218 13.6016 5.31812 13.6016H9.56031C10.0349 13.6016 10.3513 13.2969 10.3513 12.8457C10.3455 12.3945 10.0349 12.0898 9.56031 12.0898H5.48218C5.00757 12.0898 4.76148 11.8613 4.76148 11.3633V5.67969L5.50562 6.53516L5.83375 6.85742C6.15601 7.17383 6.59546 7.18555 6.91187 6.86914C7.22242 6.55273 7.22242 6.10742 6.90601 5.79102L4.86109 3.75195C4.31617 3.21289 3.68921 3.21289 3.15015 3.75195L1.10523 5.79102C0.788824 6.10742 0.788824 6.55273 1.09937 6.86914Z" fill="#787878"/>
</svg>
