<svg width="16" height="16" viewBox="0 0 16 16" fill="none" xmlns="http://www.w3.org/2000/svg">
<path d="M1.32129 6.71143C1.32129 9.71924 3.76855 12.1665 6.77637 12.1665C7.96582 12.1665 9.05273 11.7837 9.94824 11.1411L13.3115 14.5112C13.4688 14.6685 13.6738 14.7437 13.8926 14.7437C14.3574 14.7437 14.6787 14.395 14.6787 13.937C14.6787 13.7183 14.5967 13.52 14.4531 13.3765L11.1104 10.0132C11.8145 9.09717 12.2314 7.95557 12.2314 6.71143C12.2314 3.70361 9.78418 1.25635 6.77637 1.25635C3.76855 1.25635 1.32129 3.70361 1.32129 6.71143ZM2.49023 6.71143C2.49023 4.34619 4.41113 2.42529 6.77637 2.42529C9.1416 2.42529 11.0625 4.34619 11.0625 6.71143C11.0625 9.07666 9.1416 10.9976 6.77637 10.9976C4.41113 10.9976 2.49023 9.07666 2.49023 6.71143Z" fill="#AFB0CB"/>
</svg>
