<svg width="16" height="16" viewBox="0 0 16 16" fill="none" xmlns="http://www.w3.org/2000/svg">
<path d="M4.44629 13.3936H11.5537C12.7842 13.3936 13.3936 12.7842 13.3936 11.5771V4.42285C13.3936 3.21582 12.7842 2.60645 11.5537 2.60645H4.44629C3.22168 2.60645 2.60645 3.20996 2.60645 4.42285V11.5771C2.60645 12.79 3.22168 13.3936 4.44629 13.3936ZM6.4502 10.9443C6.19824 10.9443 6.0166 10.7334 6.06348 10.4814L6.31543 9.29199H5.76465C5.56543 9.29199 5.41895 9.14551 5.41895 8.93457C5.41895 8.70605 5.58887 8.53027 5.8291 8.53027H6.47363L6.72559 7.30566H6.19824C5.99316 7.30566 5.84668 7.15332 5.84668 6.94824C5.84668 6.71387 6.02246 6.53809 6.25684 6.53809H6.89551L7.14746 5.30176C7.19434 5.07324 7.34668 4.9502 7.59277 4.9502C7.83887 4.9502 8.01465 5.16699 7.96191 5.41309L7.7334 6.53809H8.85254L9.11621 5.30176C9.16309 5.07324 9.31543 4.9502 9.5498 4.9502C9.80176 4.9502 9.9834 5.16113 9.93652 5.41309L9.69629 6.53809H10.2354C10.4346 6.53809 10.5811 6.69043 10.5811 6.89551C10.5811 7.12988 10.4111 7.30566 10.1709 7.30566H9.53809L9.28027 8.53027H9.80762C10.0068 8.53027 10.1533 8.68262 10.1533 8.8877C10.1533 9.11621 9.9834 9.29199 9.74316 9.29199H9.11621L8.84668 10.5986C8.7998 10.8213 8.6416 10.9443 8.39551 10.9443C8.14941 10.9443 7.97363 10.7334 8.02637 10.4814L8.27246 9.29785H7.15332L6.87793 10.5986C6.83105 10.8213 6.68457 10.9443 6.4502 10.9443ZM7.25879 8.60059H8.47168L8.75879 7.24121H7.54004L7.25879 8.60059Z" fill="#787878"/>
</svg>
