<svg width="16" height="16" viewBox="0 0 16 16" fill="none" xmlns="http://www.w3.org/2000/svg">
<path d="M1.16211 2.74121C1.16211 3.08105 1.44922 3.36816 1.78906 3.36816H3.5293L4.41406 9.42676C4.54883 10.3408 5.04102 10.8975 5.9668 10.8975H12.7754C13.0801 10.8975 13.3555 10.6631 13.3555 10.3174C13.3555 9.97754 13.0801 9.74316 12.7754 9.74316H6.11914C5.87305 9.74316 5.71484 9.56738 5.67969 9.30371L5.58594 8.70605H12.8398C13.7656 8.70605 14.2578 8.14941 14.3926 7.22363L14.8145 4.39355C14.8262 4.31152 14.8379 4.21191 14.8379 4.1416C14.8379 3.76074 14.5859 3.49707 14.123 3.49707H4.8418L4.75977 2.92871C4.68359 2.38379 4.44922 2.1084 3.75781 2.1084H1.78906C1.44922 2.1084 1.16211 2.39551 1.16211 2.74121ZM5.38672 12.8252C5.38672 13.417 5.86133 13.8916 6.45312 13.8916C7.04492 13.8916 7.51953 13.417 7.51953 12.8252C7.51953 12.2334 7.04492 11.7588 6.45312 11.7588C5.86133 11.7588 5.38672 12.2334 5.38672 12.8252ZM10.7539 12.8252C10.7539 13.417 11.2344 13.8916 11.8262 13.8916C12.418 13.8916 12.8926 13.417 12.8926 12.8252C12.8926 12.2334 12.418 11.7588 11.8262 11.7588C11.2344 11.7588 10.7539 12.2334 10.7539 12.8252Z" fill="#80819C"/>
</svg>
