<svg width="118" height="22" viewBox="0 0 118 22" fill="none" xmlns="http://www.w3.org/2000/svg">
<path fill-rule="evenodd" clip-rule="evenodd" d="M10.3269 21.7076C10.0452 21.8432 9.71143 21.9579 9.45065 21.9579C9.18987 21.9579 8.85607 21.8432 8.57443 21.7076C2.28443 18.6721 0 16.7632 0 12.9662V5.50793C0 3.63032 0.521559 2.77496 2.23227 2.03435C3.06677 1.67969 6.67596 0.532258 7.38528 0.344496C8.02158 0.167166 8.83521 0.0419922 9.45065 0.0419922C10.0661 0.0419922 10.8797 0.156735 11.516 0.344496C12.2253 0.55312 15.8345 1.67969 16.669 2.03435C18.3797 2.77496 18.9013 3.63032 18.9013 5.50793V12.9662C18.9013 16.7632 16.6169 18.6721 10.3269 21.7076ZM9.05426 18.2027C9.31504 18.3696 9.37763 18.3904 9.45065 18.3904C9.52367 18.3904 9.58625 18.3591 9.84703 18.2027C10.0184 18.1037 10.1854 18.0075 10.3478 17.9138C14.2097 15.6879 15.5738 14.9018 15.5738 12.5594V5.88345C15.5738 5.45577 15.459 5.25758 15.1565 5.13241C14.0296 4.67299 12.0168 4.00469 11.0334 3.67818C10.8334 3.61177 10.6759 3.5595 10.5772 3.52601C10.0244 3.36954 9.75315 3.29652 9.45065 3.29652C9.14814 3.29652 8.8665 3.36954 8.32408 3.52601C8.22535 3.5595 8.06792 3.61177 7.86791 3.67818C6.8845 4.00469 4.87166 4.67299 3.74479 5.13241C3.43186 5.25758 3.32755 5.45577 3.32755 5.88345V12.5594C3.32755 14.6495 4.27063 15.234 7.68181 17.3482C8.10107 17.608 8.55761 17.891 9.05426 18.2027ZM6.17526 11.3494C5.84146 11.3494 5.58068 11.099 5.58068 10.7757C5.58068 10.6088 5.64327 10.4419 5.75801 10.3063L10.4938 4.663C11.0362 4.03713 11.8707 4.50654 11.589 5.26801L10.16 8.96065H12.8408C13.1746 8.96065 13.4354 9.211 13.4354 9.52393C13.4354 9.69083 13.3728 9.85773 13.258 9.99334L8.52227 15.647C7.97985 16.2625 7.14536 15.8035 7.43743 15.0316L8.8665 11.3494H6.17526ZM30.6331 18.38L31.7596 13.0497H37.1317L37.8515 9.73258H32.469L33.0844 6.83272H39.0406L39.7917 3.32784H29.2249L26.0225 18.38H30.6331ZM40.7999 18.5469C42.2498 18.5469 43.4285 17.9315 43.9918 17.024H44.0753L43.7832 18.38H47.7992L49.3639 11.0156C49.416 10.7861 49.4577 10.3793 49.4577 10.0872C49.4577 7.99058 47.3819 6.57194 44.3256 6.57194C41.384 6.57194 39.2143 8.04273 38.7553 10.4523H42.4793C42.6879 9.84733 43.2616 9.53439 44.0335 9.53439C44.868 9.53439 45.4313 9.88905 45.4313 10.421C45.4313 10.4941 45.4209 10.5671 45.3896 10.7444L45.254 11.412L42.7401 11.4642C39.4647 11.5372 37.4515 13.0393 37.4515 15.428C37.4515 17.2222 38.891 18.5469 40.7999 18.5469ZM42.7296 15.7514C41.9577 15.7514 41.4257 15.3759 41.4257 14.8126C41.4257 14.1554 42.0516 13.7069 42.9904 13.686L44.7741 13.6443L44.6177 14.3849C44.4508 15.1672 43.6371 15.7514 42.7296 15.7514ZM53.8248 13.8529C51.676 13.1227 50.6641 12.0379 50.6641 10.4523C50.6641 8.09489 52.7295 6.57194 55.9319 6.57194C58.9152 6.57194 61.0223 8.15748 61.1058 10.4523H57.4131C57.3714 9.76388 56.7664 9.28404 55.8693 9.28404C55.0765 9.28404 54.5758 9.59698 54.5758 10.0977C54.5758 10.5149 54.8783 10.7235 55.9736 11.0991L57.2671 11.5372C59.4785 12.2882 60.313 13.1644 60.313 14.7083C60.313 17.1179 58.1746 18.6721 54.8679 18.6721C51.5195 18.6721 49.3707 17.1179 49.2768 14.6457H53.1781C53.2198 15.4176 53.9187 15.9496 54.9722 15.9496C55.7754 15.9496 56.224 15.6679 56.224 15.1881C56.224 14.7917 55.9006 14.5622 54.8679 14.2076L53.8248 13.8529ZM66.3803 18.5469C67.027 18.5469 67.7572 18.4843 68.0702 18.4009L68.696 15.5636C68.5813 15.6053 68.3831 15.6262 67.945 15.6262C66.9958 15.6262 66.6098 15.3863 66.6098 14.7917C66.6098 14.6665 66.6307 14.437 66.662 14.3327L67.5382 10.2333H69.7809L70.4276 7.20824H68.1745L68.7586 4.46484H64.6279L64.0437 7.20824H62.333L61.6654 10.2333H63.3866L62.4582 14.6874C62.3539 15.209 62.333 15.6679 62.333 15.96C62.333 17.6707 63.8142 18.5469 66.3803 18.5469ZM90.1562 3.32784L82.3849 18.38H76.8356L75.2917 3.32784H80.2257L80.4239 13.9259H80.5073L85.1388 3.32784H90.1562ZM90.8723 3.32784L87.6908 18.38H92.1032L92.9794 14.2701H95.1178C99.4363 14.2701 102.128 11.8501 102.128 8.01144C102.128 5.20545 100.135 3.32784 96.5782 3.32784H90.8723ZM94.5858 6.66582H95.7437C97.0058 6.66582 97.6943 7.21867 97.6943 8.40782C97.6943 9.87862 96.6929 10.9948 95.1491 10.9948H93.6574L94.5858 6.66582ZM107.277 10.1185L105.535 18.38H101.31L104.513 3.32784H107.851L111.95 11.5893H112.034L113.776 3.32784H118L114.798 18.38H111.46L107.36 10.1185H107.277Z" fill="white"/>
</svg>
