<svg width="118" height="22" viewBox="0 0 118 22" fill="none" xmlns="http://www.w3.org/2000/svg">
<path fill-rule="evenodd" clip-rule="evenodd" d="M10.3269 21.6656C10.0452 21.8012 9.71143 21.9159 9.45065 21.9159C9.18987 21.9159 8.85607 21.8012 8.57443 21.6656C2.28443 18.6301 0 16.7212 0 12.9242V5.46594C0 3.58833 0.521559 2.73297 2.23227 1.99236C3.06677 1.6377 6.67596 0.490265 7.38528 0.302504C8.02158 0.125174 8.83521 0 9.45065 0C10.0661 0 10.8797 0.114743 11.516 0.302504C12.2253 0.511128 15.8345 1.6377 16.669 1.99236C18.3797 2.73297 18.9013 3.58833 18.9013 5.46594V12.9242C18.9013 16.7212 16.6169 18.6301 10.3269 21.6656ZM9.05426 18.1607C9.31504 18.3276 9.37763 18.3484 9.45065 18.3484C9.52367 18.3484 9.58625 18.3172 9.84703 18.1607C10.0184 18.0617 10.1854 17.9655 10.3478 17.8719C14.2097 15.646 15.5738 14.8598 15.5738 12.5174V5.84146C15.5738 5.41378 15.459 5.21559 15.1565 5.09042C14.0296 4.631 12.0168 3.9627 11.0334 3.63619C10.8334 3.56978 10.6759 3.51751 10.5772 3.48401C10.0244 3.32755 9.75315 3.25453 9.45065 3.25453C9.14814 3.25453 8.8665 3.32755 8.32408 3.48401C8.22535 3.51751 8.06792 3.56978 7.86791 3.63619C6.8845 3.9627 4.87166 4.631 3.74479 5.09042C3.43186 5.21559 3.32755 5.41378 3.32755 5.84146V12.5174C3.32755 14.6075 4.27063 15.192 7.68181 17.3062C8.10107 17.566 8.55761 17.849 9.05426 18.1607ZM6.17526 11.3074C5.84146 11.3074 5.58068 11.0571 5.58068 10.7337C5.58068 10.5668 5.64327 10.3999 5.75801 10.2643L10.4938 4.62101C11.0362 3.99514 11.8707 4.46455 11.589 5.22602L10.16 8.91866H12.8408C13.1746 8.91866 13.4354 9.16901 13.4354 9.48194C13.4354 9.64884 13.3728 9.81574 13.258 9.95135L8.52227 15.605C7.97985 16.2205 7.14536 15.7615 7.43743 14.9896L8.8665 11.3074H6.17526ZM30.6331 18.338L31.7596 13.0077H37.1317L37.8515 9.69059H32.469L33.0844 6.79072H39.0406L39.7917 3.28585H29.2249L26.0225 18.338H30.6331ZM40.7999 18.5049C42.2498 18.5049 43.4285 17.8895 43.9918 16.982H44.0753L43.7832 18.338H47.7992L49.3639 10.9736C49.416 10.7441 49.4577 10.3373 49.4577 10.0453C49.4577 7.94858 47.3819 6.52994 44.3256 6.52994C41.384 6.52994 39.2143 8.00074 38.7553 10.4103H42.4793C42.6879 9.80533 43.2616 9.4924 44.0335 9.4924C44.868 9.4924 45.4313 9.84706 45.4313 10.379C45.4313 10.4521 45.4209 10.5251 45.3896 10.7024L45.254 11.37L42.7401 11.4222C39.4647 11.4952 37.4515 12.9973 37.4515 15.386C37.4515 17.1802 38.891 18.5049 40.7999 18.5049ZM42.7296 15.7094C41.9577 15.7094 41.4257 15.3339 41.4257 14.7706C41.4257 14.1134 42.0516 13.6649 42.9904 13.644L44.7741 13.6023L44.6177 14.3429C44.4508 15.1252 43.6371 15.7094 42.7296 15.7094ZM53.8248 13.8109C51.676 13.0807 50.6641 11.9959 50.6641 10.4103C50.6641 8.0529 52.7295 6.52994 55.9319 6.52994C58.9152 6.52994 61.0223 8.11548 61.1058 10.4103H57.4131C57.3714 9.72188 56.7664 9.24205 55.8693 9.24205C55.0765 9.24205 54.5758 9.55499 54.5758 10.0557C54.5758 10.4729 54.8783 10.6816 55.9736 11.0571L57.2671 11.4952C59.4785 12.2462 60.313 13.1224 60.313 14.6663C60.313 17.0759 58.1746 18.6301 54.8679 18.6301C51.5195 18.6301 49.3707 17.0759 49.2768 14.6037H53.1781C53.2198 15.3756 53.9187 15.9076 54.9722 15.9076C55.7754 15.9076 56.224 15.6259 56.224 15.1461C56.224 14.7497 55.9006 14.5202 54.8679 14.1656L53.8248 13.8109ZM66.3803 18.5049C67.027 18.5049 67.7572 18.4424 68.0702 18.3589L68.696 15.5216C68.5813 15.5633 68.3831 15.5842 67.945 15.5842C66.9958 15.5842 66.6098 15.3443 66.6098 14.7497C66.6098 14.6245 66.6307 14.3951 66.662 14.2907L67.5382 10.1913H69.7809L70.4276 7.16625H68.1745L68.7586 4.42285H64.6279L64.0437 7.16625H62.333L61.6654 10.1913H63.3866L62.4582 14.6454C62.3539 15.167 62.333 15.6259 62.333 15.918C62.333 17.6287 63.8142 18.5049 66.3803 18.5049ZM90.1562 3.28585L82.3849 18.338H76.8356L75.2917 3.28585H80.2257L80.4239 13.8839H80.5073L85.1388 3.28585H90.1562ZM90.8723 3.28585L87.6908 18.338H92.1032L92.9794 14.2282H95.1178C99.4363 14.2282 102.128 11.8081 102.128 7.96945C102.128 5.16346 100.135 3.28585 96.5782 3.28585H90.8723ZM94.5858 6.62382H95.7437C97.0058 6.62382 97.6943 7.17668 97.6943 8.36583C97.6943 9.83663 96.6929 10.9528 95.1491 10.9528H93.6574L94.5858 6.62382ZM107.277 10.0765L105.535 18.338H101.31L104.513 3.28585H107.851L111.95 11.5473H112.034L113.776 3.28585H118L114.798 18.338H111.46L107.36 10.0765H107.277Z" fill="#8985FB"/>
</svg>
