export class LogoutIcon {
        }
<svg width="16" height="17" viewBox="0 0 16 17" fill="none" xmlns="http://www.w3.org/2000/svg">
<path d="M3.87109 14.9336H12.1289C13.6465 14.9336 14.4463 14.1406 14.4463 12.6436V4.33789C14.4463 2.84082 13.6465 2.04102 12.1289 2.04102H3.87109C2.36035 2.04102 1.55371 2.84082 1.55371 4.33789V12.6436C1.55371 14.1406 2.36035 14.9336 3.87109 14.9336ZM4.3291 8.48047C4.3291 8.25488 4.41113 8.08398 4.5957 7.90625L7.02246 5.54102C7.15918 5.4043 7.30273 5.34961 7.50098 5.34961C7.86328 5.34961 8.12305 5.61621 8.12305 5.98535C8.12305 6.16992 8.03418 6.34082 7.91113 6.45703L7.08398 7.24316L6.31152 7.83789L7.75391 7.7627H11.0693C11.4658 7.7627 11.7529 8.07031 11.7529 8.48047C11.7529 8.89062 11.4658 9.19141 11.0693 9.19141H7.75391L6.31152 9.11621L7.07031 9.71777L7.91113 10.4971C8.04102 10.6133 8.12305 10.7842 8.12305 10.9688C8.12305 11.3447 7.86328 11.6113 7.50098 11.6113C7.30273 11.6113 7.15918 11.5498 7.02246 11.4199L4.5957 9.05469C4.41797 8.88379 4.3291 8.70605 4.3291 8.48047Z" fill="#CAD5E8"/>
</svg>
