<svg width="24" height="24" viewBox="0 0 24 24" fill="none" xmlns="http://www.w3.org/2000/svg">
<ellipse cx="7" cy="14.584" rx="2" ry="2.5" fill="#6764D3"/>
<path d="M2.15781 8.48047V9.08047H2.75781H21.2422H21.8422V8.48047V7.77734C21.8422 6.84194 21.5963 6.02961 21.0161 5.45466C20.4368 4.88065 19.6201 4.63828 18.6797 4.63828H5.32031C4.37993 4.63828 3.56321 4.88065 2.98393 5.45466C2.4037 6.02961 2.15781 6.84194 2.15781 7.77734V8.48047ZM21.8422 10.3086V9.70859H21.2422H2.75781H2.15781V10.3086V16.2227C2.15781 17.1581 2.4037 17.9704 2.98393 18.5453C3.56321 19.1194 4.37993 19.3617 5.32031 19.3617H18.6797C19.6214 19.3617 20.4379 19.1167 21.0166 18.5419C21.596 17.9665 21.8422 17.1549 21.8422 16.2227V10.3086ZM6.01562 15.6695C5.92427 15.6695 5.8911 15.6412 5.88267 15.6328C5.87399 15.6242 5.85 15.5956 5.85 15.5195V14.0742C5.85 13.9982 5.87399 13.9696 5.88267 13.961C5.8911 13.9526 5.92427 13.9242 6.01562 13.9242H7.92969C8.02104 13.9242 8.05421 13.9526 8.06264 13.961C8.07133 13.9696 8.09531 13.9982 8.09531 14.0742V15.5195C8.09531 15.5956 8.07133 15.6242 8.06264 15.6328C8.05421 15.6412 8.02104 15.6695 7.92969 15.6695H6.01562Z" fill="white" stroke="#6764D3" stroke-width="1.2"/>
</svg>
