<svg width="24" height="24" viewBox="0 0 24 24" fill="none" xmlns="http://www.w3.org/2000/svg">
<path d="M4.22266 17.893H19.7852C20.5855 17.893 21.3009 17.6913 21.8128 17.1823C22.3252 16.6726 22.5336 15.9543 22.5336 15.1367V6.13672C22.5336 5.31911 22.3252 4.60085 21.8128 4.09119C21.3009 3.58211 20.5855 3.38047 19.7852 3.38047H4.22266C3.41923 3.38047 2.70188 3.58169 2.18879 4.09061C1.67481 4.60043 1.46641 5.31911 1.46641 6.13672V15.1367C1.46641 15.9543 1.67481 16.673 2.18879 17.1828C2.70188 17.6918 3.41923 17.893 4.22266 17.893ZM8.00391 20.6195H15.9961C16.7138 20.6195 17.307 20.0349 17.307 19.3164C17.307 18.5944 16.7181 18.0055 15.9961 18.0055H8.00391C7.27331 18.0055 6.70078 18.6031 6.70078 19.3164C6.70078 20.0262 7.27758 20.6195 8.00391 20.6195Z" fill="white" stroke="#6764D3" stroke-width="1.2"/>
</svg>
