<svg width="24" height="24" viewBox="0 0 24 24" fill="none" xmlns="http://www.w3.org/2000/svg">
<path d="M16.3047 14.6211C12.1719 14.6211 9.53906 12.0508 9.53906 7.92578C9.53906 7.03516 9.74219 5.82422 10.0234 5.19141C10.1172 4.98828 10.1406 4.84766 10.1406 4.74609C10.1406 4.50391 9.96875 4.26172 9.64062 4.26172C9.53125 4.26172 9.33594 4.28516 9.14844 4.36328C6.24219 5.51953 4.30469 8.59766 4.30469 11.8633C4.30469 16.4492 7.77344 19.7383 12.3516 19.7383C15.6719 19.7383 18.5781 17.7305 19.5938 15.1289C19.6719 14.9258 19.6953 14.7227 19.6953 14.6211C19.6953 14.3164 19.4609 14.1133 19.2109 14.1133C19.0859 14.1133 18.9609 14.1445 18.7812 14.2148C18.2031 14.4258 17.25 14.6211 16.3047 14.6211Z" fill="white"/>
</svg>
