<svg width="24" height="24" viewBox="0 0 24 24" fill="none" xmlns="http://www.w3.org/2000/svg">
<path d="M12 5.98438C12.5312 5.98438 12.9688 5.54688 12.9688 5.00781C12.9688 4.47656 12.5312 4.03906 12 4.03906C11.4609 4.03906 11.0234 4.47656 11.0234 5.00781C11.0234 5.54688 11.4609 5.98438 12 5.98438ZM7.05469 8.02344C7.59375 8.02344 8.03125 7.59375 8.03125 7.05469C8.03125 6.51562 7.59375 6.08594 7.05469 6.08594C6.51562 6.08594 6.08594 6.51562 6.08594 7.05469C6.08594 7.59375 6.51562 8.02344 7.05469 8.02344ZM16.9453 8.02344C17.4766 8.02344 17.9141 7.59375 17.9141 7.05469C17.9141 6.51562 17.4766 6.08594 16.9453 6.08594C16.4062 6.08594 15.9688 6.51562 15.9688 7.05469C15.9688 7.59375 16.4062 8.02344 16.9453 8.02344ZM12 16.0781C14.2344 16.0781 16.0781 14.2344 16.0781 12C16.0781 9.76562 14.2344 7.91406 12 7.91406C9.76562 7.91406 7.91406 9.76562 7.91406 12C7.91406 14.2344 9.76562 16.0781 12 16.0781ZM5.00781 12.9688C5.54688 12.9688 5.98438 12.5312 5.98438 12C5.98438 11.4609 5.54688 11.0234 5.00781 11.0234C4.47656 11.0234 4.03906 11.4609 4.03906 12C4.03906 12.5312 4.47656 12.9688 5.00781 12.9688ZM18.9844 12.9688C19.5234 12.9688 19.9609 12.5312 19.9609 12C19.9609 11.4609 19.5234 11.0234 18.9844 11.0234C18.4531 11.0234 18.0156 11.4609 18.0156 12C18.0156 12.5312 18.4531 12.9688 18.9844 12.9688ZM16.9453 17.9141C17.4766 17.9141 17.9141 17.4766 17.9141 16.9453C17.9141 16.4062 17.4766 15.9688 16.9453 15.9688C16.4062 15.9688 15.9688 16.4062 15.9688 16.9453C15.9688 17.4766 16.4062 17.9141 16.9453 17.9141ZM7.05469 17.9141C7.59375 17.9141 8.03125 17.4766 8.03125 16.9453C8.03125 16.4062 7.59375 15.9688 7.05469 15.9688C6.51562 15.9688 6.08594 16.4062 6.08594 16.9453C6.08594 17.4766 6.51562 17.9141 7.05469 17.9141ZM12 19.9609C12.5312 19.9609 12.9688 19.5234 12.9688 18.9844C12.9688 18.4531 12.5312 18.0156 12 18.0156C11.4609 18.0156 11.0234 18.4531 11.0234 18.9844C11.0234 19.5234 11.4609 19.9609 12 19.9609Z" fill="white"/>
</svg>
