<svg width="24" height="24" viewBox="0 0 24 24" fill="none" xmlns="http://www.w3.org/2000/svg">
<ellipse cx="12" cy="10.584" rx="2" ry="2.5" fill="#6764D3"/>
<ellipse cx="12" cy="16.584" rx="3" ry="1.5" fill="#6764D3"/>
<path d="M9.94765 10.4581L9.94765 10.4579C9.94129 9.19351 10.8928 8.20937 12.0039 8.20937C13.1124 8.20937 14.0602 9.19131 14.0602 10.4609C14.0602 11.8302 13.1159 12.7721 12.0086 12.7672C10.8882 12.7546 9.95412 11.8231 9.94765 10.4581ZM5.30859 19.8891H18.6914C19.6318 19.8891 20.4482 19.6467 21.0273 19.0741C21.6076 18.5004 21.8539 17.69 21.8539 16.7578V7.24219C21.8539 6.30996 21.6076 5.49959 21.0273 4.92586C20.4482 4.35329 19.6318 4.11094 18.6914 4.11094H5.30859C4.36959 4.11094 3.55291 4.35063 2.97319 4.92244C2.39202 5.49568 2.14609 6.30676 2.14609 7.24219V16.7578C2.14609 17.69 2.39237 18.5004 2.9727 19.0741C3.55185 19.6467 4.36821 19.8891 5.30859 19.8891ZM16.1341 17.2359H7.87373C8.64377 16.0659 10.159 15.2406 12.0039 15.2406C13.8488 15.2406 15.364 16.0659 16.1341 17.2359Z" fill="white" stroke="#6764D3" stroke-width="1.2"/>
</svg>
